<?xml version="1.0" encoding="UTF-8" standalone="no"?>
<svg
   xmlns:dc="http://purl.org/dc/elements/1.1/"
   xmlns:cc="http://creativecommons.org/ns#"
   xmlns:rdf="http://www.w3.org/1999/02/22-rdf-syntax-ns#"
   xmlns:svg="http://www.w3.org/2000/svg"
   xmlns="http://www.w3.org/2000/svg"
   viewBox="0 0 113.38667 18.986668"
   height="18.986668"
   width="113.38667"
   xml:space="preserve"
   id="svg2"
   version="1.1"><metadata
     id="metadata8"><rdf:RDF><cc:Work
         rdf:about=""><dc:format>image/svg+xml</dc:format><dc:type
           rdf:resource="http://purl.org/dc/dcmitype/StillImage" /></cc:Work></rdf:RDF></metadata><defs
     id="defs6" /><g
     transform="matrix(1.3333333,0,0,-1.3333333,0,18.986667)"
     id="g10"><g
       transform="scale(0.1)"
       id="g12"><path
         id="path14"
         style="fill:#8f8b8d;fill-opacity:1;fill-rule:nonzero;stroke:none"
         d="m 136.348,12.4883 h 7.121 l -3.703,10.8711 z m -8.426,-8.90627 0.762,0.78125 9.207,26.55472 h 6.191 l 9.629,-26.66019 0.762,-0.67578 h 1.484 V 0.390625 H 144.023 V 3.58203 h 1.543 l 0.704,0.67578 -1.407,4.14063 h -9.824 l -1.316,-4.14063 0.691,-0.67578 h 1.887 V 0.390625 h -9.922 V 3.58203 h 1.543" /><path
         id="path16"
         style="fill:#8f8b8d;fill-opacity:1;fill-rule:nonzero;stroke:none"
         d="M 165.703,20.168 V 4.36328 l 0.781,-0.78125 h 4.231 V 0.390625 c 0,0 -2.774,-0.390625 -5.852,-0.390625 -3.808,0 -5.742,1.39453 -5.742,5.37891 V 20.168 h -2.715 v 3.1914 h 1.934 l 0.781,0.7226 2.461,5.4375 h 4.121 v -6.1601 h 4.875 V 20.168 h -4.875" /><path
         id="path18"
         style="fill:#8f8b8d;fill-opacity:1;fill-rule:nonzero;stroke:none"
         d="m 182.785,3.58203 h 2.41 V 0.390625 H 172.734 V 3.58203 h 1.934 l 0.723,0.78125 V 19.4922 l -0.723,0.7305 h -1.934 v 3.2421 h 6.887 c 1.738,0 2.02,-1.0039 2.02,-1.9531 v -1.1211 h 0.226 c 0.692,0.8399 2.821,3.4649 6.211,3.4649 0.84,0 1.68,-0.1641 1.68,-0.1641 v -9.0156 h -3.918 v 3.0312 l -0.731,0.7188 c -1.367,-0.2813 -2.461,-0.836 -3.078,-1.1719 V 4.36328 l 0.754,-0.78125" /><path
         id="path20"
         style="fill:#8f8b8d;fill-opacity:1;fill-rule:nonzero;stroke:none"
         d="m 204.121,6.05469 v 3.75 h -3.047 c -2.019,0 -2.937,-0.83985 -2.937,-2.29297 0,-1.79688 0.613,-2.64063 2.656,-2.64063 1.453,0 2.637,0.73438 3.328,1.1836 m 9.328,-5.664065 h -6.886 c -1.766,0 -2.02,1.003905 -2.02,1.902345 v 0.73437 h -0.215 C 203.625,2.1875 201.496,0 198.137,0 c -5.02,0 -6.582,3.13672 -6.582,6.89453 0,4.03127 2.968,6.43747 7.675,6.43747 h 4.891 v 2.0703 c 0,2.5782 -0.105,4.375 -3.828,4.375 -0.594,0 -1.289,0 -1.992,-0.1171 l -0.645,-0.6758 v -3.0196 h -4.062 v 6.6641 c 0,-0.0508 3.703,1.2266 9.023,1.2266 6.211,0 8.086,-3.3594 8.086,-7.3907 V 4.36328 l 0.82,-0.78125 h 1.926 V 0.390625" /><path
         id="path22"
         style="fill:#8f8b8d;fill-opacity:1;fill-rule:nonzero;stroke:none"
         d="M 229.668,6.38672 V 17.8125 c -1.094,0.8984 -2.41,1.1719 -3.281,1.1719 -2.91,0 -3.914,-2.0703 -3.914,-7.0508 0,-5.03907 1.004,-7.00001 3.914,-7.00001 0.929,0 2.129,0.4961 3.281,1.45313 m 2.414,-5.996095 c -1.738,0 -2.023,1.003905 -2.023,1.902345 v 0.73437 h -0.164 C 228.887,1.57422 226.563,0 224.063,0 c -4.532,0 -8.29,3.41797 -8.29,11.707 0,8.2344 3.758,12.1485 8.29,12.1485 2.128,0 4.453,-1.2774 5.605,-2.6836 v 6.9414 l -0.73,0.8437 h -1.934 v 3.1914 h 7.285 c 1.738,0 2.02,-1.0039 2.02,-1.9531 V 4.36328 l 0.722,-0.78125 h 1.934 V 0.390625 h -6.883" /><path
         id="path24"
         style="fill:#8f8b8d;fill-opacity:1;fill-rule:nonzero;stroke:none"
         d="m 247.004,32.7617 c 2.488,0 3.73,-1.3359 3.73,-3.4648 0,-2.1289 -1.242,-3.4766 -3.73,-3.4766 -2.461,0 -3.691,1.3477 -3.691,3.4766 0,2.1289 1.23,3.4648 3.691,3.4648 m 1.707,-9.2969 c 1.769,0 2.023,-1.0039 2.023,-1.9531 V 4.36328 l 0.75,-0.78125 h 1.934 V 0.390625 H 241.426 V 3.58203 h 1.887 l 0.808,0.78125 V 19.4922 l -0.808,0.7305 h -1.887 v 3.2421 h 7.285" /><path
         id="path26"
         style="fill:#8f8b8d;fill-opacity:1;fill-rule:nonzero;stroke:none"
         d="m 275.266,23.4648 c 1.757,0 2.011,-1.0039 2.011,-1.9531 V 4.36328 l 0.789,-0.78125 h 1.907 V 0.390625 h -6.895 c -1.769,0 -2.043,1.003905 -2.043,1.902345 V 3.02734 H 270.84 C 270.168,2.1875 268.008,0 264.68,0 c -5.188,0 -6.7,3.08594 -6.7,6.89453 V 19.4922 l -0.753,0.7305 h -1.934 v 3.2421 h 7.285 c 1.758,0 2.012,-1.0039 2.012,-1.9531 V 7.95703 c 0,-1.28906 0.137,-3.08594 2.637,-3.08594 1.535,0 2.773,0.73438 3.418,1.1836 V 19.4922 l -0.731,0.7305 h -1.934 v 3.2421 h 7.286" /><path
         id="path28"
         style="fill:#8f8b8d;fill-opacity:1;fill-rule:nonzero;stroke:none"
         d="m 290.273,0 c -4.617,0 -7.421,1.00391 -7.421,1.00391 v 6.39062 h 3.586 V 4.48047 l 0.75,-0.78125 c 0.929,-0.11719 1.933,-0.17188 3.085,-0.17188 2.551,0 3.332,1.1211 3.332,2.74219 0,1.73828 -0.449,2.57813 -4.082,3.3125 -5.351,1.06247 -6.535,3.97267 -6.535,6.94137 0,4.5899 3.36,7.3321 9.25,7.3321 3.719,0 6.582,-0.7188 6.582,-0.7188 v -6.3281 h -3.586 v 2.6836 l -0.761,0.6758 c -0.703,0.0547 -1.395,0.164 -2.235,0.164 -2.187,0 -3.508,-0.8984 -3.508,-2.3515 0,-1.3985 0.168,-2.4063 3.418,-3.0782 5.715,-1.1796 7.735,-3.25 7.735,-6.71871 C 299.883,2.63672 295.879,0 290.273,0" /><path
         id="path30"
         style="fill:#8f8b8d;fill-opacity:1;fill-rule:nonzero;stroke:none"
         d="m 172.539,53.4375 c -3.672,-1.6211 -9.023,-3.75 -17.812,-3.75 -18.907,0 -30.868,10.6367 -30.868,33.8867 0,23.2418 12.879,33.8278 32.774,33.8278 8.203,0 14.785,-1.961 14.785,-1.961 V 97.5781 h -8.801 v 8.5039 l -1.562,1.574 c -1.453,0.168 -2.86,0.391 -4.422,0.391 -13,0 -16.945,-8.6837 -16.945,-23.1837 0,-16.6406 3.945,-25.3828 17.667,-25.3828 1.739,0 3.223,0 4.708,0.1797 l 1.707,1.6796 v 9.129 h 8.769 V 53.4375" /><path
         id="path32"
         style="fill:#8f8b8d;fill-opacity:1;fill-rule:nonzero;stroke:none"
         d="m 199.531,57.4727 h 5.324 v -6.8985 h -27.05 v 6.8985 h 4.14 l 1.707,1.6796 v 32.7618 l -1.707,1.7382 h -4.14 v 6.8357 h 14.98 c 3.719,0 4.344,-2.1286 4.344,-4.1482 v -2.4062 h 0.422 c 1.504,1.8477 6.238,7.5004 13.574,7.5004 1.797,0 3.594,-0.274 3.594,-0.274 V 81.5039 h -8.469 v 6.5547 l -1.621,1.5 c -2.91,-0.4961 -5.352,-1.6797 -6.66,-2.3984 V 59.1523 l 1.562,-1.6796" /><path
         id="path34"
         style="fill:#8f8b8d;fill-opacity:1;fill-rule:nonzero;stroke:none"
         d="m 239.055,104.91 -3.957,4.367 12.355,12.493 h 2.442 l 6.687,-8.282 -15.625,-8.578 z m -5.996,-25.203 h 12.996 v 2.461 c 0,7.2265 -1.512,10.7031 -5.86,10.7031 -4.422,0 -6.582,-4.707 -7.136,-13.1641 m 24.843,-6.6093 h -24.933 c 0.422,-10.5313 4.289,-14.3985 13.476,-14.3985 4.953,0 8.938,1.5156 10.422,2.0235 v -7.5704 c -2.441,-1.7343 -7.226,-3.4648 -15.351,-3.4648 -12.161,0 -22.942,7.168 -22.942,24.8164 0,18.25 9.778,26.9301 21.543,26.9301 11.399,0 19.492,-7.7231 19.492,-20.2113 V 74.832 l -1.707,-1.7343" /><path
         id="path36"
         style="fill:#8f8b8d;fill-opacity:1;fill-rule:nonzero;stroke:none"
         d="M 294.699,63.5742 V 88.332 c -2.461,1.9024 -5.265,2.4688 -7.14,2.4688 -6.329,0 -8.485,-4.4336 -8.485,-15.2344 0,-10.8125 2.156,-15.125 8.485,-15.125 1.964,0 4.589,1.0039 7.14,3.1328 m 5.184,-13 c -3.789,0 -4.344,2.25 -4.344,4.211 v 1.4531 h -0.363 c -2.266,-3.086 -7.227,-6.5508 -12.715,-6.5508 -9.805,0 -18.008,7.5 -18.008,25.4297 0,17.8633 8.203,26.3168 18.008,26.3168 4.68,0 9.687,-2.852 12.238,-5.8207 v 15.1287 l -1.711,1.731 h -4.109 v 6.836 h 15.762 c 3.777,0 4.375,-2.133 4.375,-4.141 V 59.1523 l 1.648,-1.6796 h 4.172 v -6.8985 h -14.953" /><path
         id="path38"
         style="fill:#8f8b8d;fill-opacity:1;fill-rule:nonzero;stroke:none"
         d="m 330.852,120.703 c 5.351,0 7.988,-2.91 7.988,-7.5 0,-4.59 -2.637,-7.558 -7.988,-7.558 -5.344,0 -7.981,2.968 -7.981,7.558 0,4.59 2.637,7.5 7.981,7.5 m 3.671,-20.215 c 3.731,0 4.317,-2.1286 4.317,-4.1482 V 59.1523 l 1.621,-1.6796 h 4.199 v -6.8985 h -25.957 v 6.8985 h 4.168 l 1.652,1.6796 v 32.7618 l -1.652,1.7382 h -4.168 v 6.8357 h 15.82" /><path
         id="path40"
         style="fill:#8f8b8d;fill-opacity:1;fill-rule:nonzero;stroke:none"
         d="M 367.734,93.4258 V 59.1523 l 1.68,-1.6796 h 9.16 v -6.8985 c 0,0 -6.043,-0.8867 -12.715,-0.8867 -8.203,0 -12.402,2.9688 -12.402,11.6523 v 32.086 h -5.859 v 6.8982 h 4.121 l 1.738,1.68 5.352,11.648 h 8.925 v -13.328 h 10.539 v -6.8982 h -10.539" /><path
         id="path42"
         style="fill:#8f8b8d;fill-opacity:1;fill-rule:nonzero;stroke:none"
         d="m 404.152,92.4805 c -6.308,0 -7.871,-5.4375 -7.871,-16.9141 0,-11.4844 1.563,-16.9219 7.871,-16.9219 6.328,0 7.891,5.4375 7.891,16.9219 0,11.4766 -1.563,16.9141 -7.891,16.9141 m 0,-42.793 c -12.668,0 -22.492,8.0078 -22.492,25.8789 0,17.8594 9.824,25.8676 22.492,25.8676 12.735,0 22.52,-8.0082 22.52,-25.8676 0,-17.8711 -9.785,-25.8789 -22.52,-25.8789" /><path
         id="path44"
         style="fill:#8f8b8d;fill-opacity:1;fill-rule:nonzero;stroke:none"
         d="m 492.539,93.5938 -1.68,-1.6797 -17.988,-48.7305 1.574,-1.6797 h 3.7 v -6.8828 h -22.86 v 6.8828 h 6.082 l 1.711,1.6797 2.07,5.8281 -16.945,43.0196 -1.57,1.5625 h -3.02 v 6.8942 h 24.172 v -6.8942 h -2.89 l -1.622,-1.6797 8.758,-24.3086 8.828,24.3086 -1.601,1.6797 h -3.192 v 6.8942 h 19.414 v -6.8942 h -2.941" /><path
         id="path46"
         style="fill:#8f8b8d;fill-opacity:1;fill-rule:nonzero;stroke:none"
         d="m 562.188,53.4375 c -3.672,-1.6211 -9.012,-3.75 -17.813,-3.75 -18.906,0 -30.828,10.6367 -30.828,33.8867 0,23.2418 12.91,33.8278 32.734,33.8278 8.203,0 14.785,-1.961 14.785,-1.961 V 97.5781 h -8.789 v 8.5039 l -1.574,1.574 c -1.394,0.168 -2.801,0.391 -4.422,0.391 -13,0 -16.945,-8.6837 -16.945,-23.1837 0,-16.6406 3.945,-25.3828 17.676,-25.3828 1.711,0 3.215,0 4.726,0.1797 l 1.68,1.6796 v 9.129 h 8.77 V 53.4375" /><path
         id="path48"
         style="fill:#8f8b8d;fill-opacity:1;fill-rule:nonzero;stroke:none"
         d="m 594.094,62.8516 v 8.1757 h -6.672 c -4.344,0 -6.297,-1.8476 -6.297,-4.9921 0,-3.9141 1.309,-5.711 5.742,-5.711 3.106,0 5.742,1.5117 7.227,2.5274 M 614.219,50.5742 H 599.27 c -3.782,0 -4.336,2.25 -4.336,4.211 v 1.4531 h -0.481 c -1.484,-1.6797 -6.101,-6.5508 -13.328,-6.5508 -10.84,0 -14.316,6.8867 -14.316,14.9492 0,8.8516 6.504,14.0078 16.668,14.0078 h 10.617 v 4.5391 c 0,5.4883 -0.254,9.4062 -8.379,9.4062 -1.231,0 -2.715,-0.1093 -4.258,-0.2851 l -1.398,-1.3945 v -6.6133 h -8.739 v 14.3945 c 0,-0.1094 7.899,2.7426 19.493,2.7426 13.464,0 17.585,-7.2738 17.585,-16.016 V 59.1523 l 1.711,-1.6796 h 4.11 v -6.8985" /><path
         id="path50"
         style="fill:#8f8b8d;fill-opacity:1;fill-rule:nonzero;stroke:none"
         d="m 659.512,100.488 c 3.781,0 4.336,-2.1286 4.336,-4.1482 V 59.1523 l 1.679,-1.6796 h 4.121 v -6.8985 h -14.929 c -3.75,0 -4.336,2.25 -4.336,4.211 v 1.4531 h -0.481 c -1.484,-1.6797 -6.101,-6.5508 -13.328,-6.5508 -11.23,0 -14.531,6.7773 -14.531,15.0664 v 27.1602 l -1.66,1.6797 h -4.172 v 6.8942 h 15.82 c 3.789,0 4.317,-2.1286 4.317,-4.1482 V 66.9922 c 0,-2.8633 0.312,-6.668 5.742,-6.668 3.301,0 5.937,1.461 7.453,2.5274 v 29.0625 l -1.711,1.6797 h -4.121 v 6.8942 h 15.801" /><path
         id="path52"
         style="fill:#8f8b8d;fill-opacity:1;fill-rule:nonzero;stroke:none"
         d="m 711.289,53.4375 c -2.461,-2.4102 -8.281,-3.75 -13.828,-3.75 -12.715,0 -23.914,7.332 -23.914,25.207 0,17.8594 11.531,26.5395 25.312,26.5395 7.254,0 12.52,-2.0707 12.52,-2.0707 V 83.4102 h -8.742 v 7.3906 l -1.707,1.6211 c -0.391,0.0586 -0.676,0.0586 -1.067,0.0586 -8.23,0 -11.758,-6.0547 -11.758,-16.9727 0,-12.3828 4.622,-16.6406 13.301,-16.6406 4.121,0 8.574,1.3476 9.883,1.8555 v -7.2852" /><path
         id="path54"
         style="fill:#8f8b8d;fill-opacity:1;fill-rule:nonzero;stroke:none"
         d="m 728.711,120.703 c 5.352,0 7.988,-2.91 7.988,-7.5 0,-4.59 -2.636,-7.558 -7.988,-7.558 -5.371,0 -8.035,2.968 -8.035,7.558 0,4.59 2.664,7.5 8.035,7.5 m 3.644,-20.215 c 3.75,0 4.344,-2.1286 4.344,-4.1482 V 59.1523 l 1.621,-1.6796 h 4.2 v -6.8985 h -25.957 v 6.8985 h 4.113 l 1.707,1.6796 v 32.7618 l -1.707,1.7382 h -4.113 v 6.8357 h 15.792" /><path
         id="path56"
         style="fill:#8f8b8d;fill-opacity:1;fill-rule:nonzero;stroke:none"
         d="m 768.059,104.91 -4.004,4.367 12.324,12.493 h 2.469 l 6.66,-8.282 -15.594,-8.578 z m 1.015,-12.4295 c -6.328,0 -7.902,-5.4375 -7.902,-16.9141 0,-11.4844 1.574,-16.9219 7.902,-16.9219 6.297,0 7.891,5.4375 7.891,16.9219 0,11.4766 -1.594,16.9141 -7.891,16.9141 m 0,-42.793 c -12.687,0 -22.519,8.0078 -22.519,25.8789 0,17.8594 9.832,25.8676 22.519,25.8676 12.715,0 22.489,-8.0082 22.489,-25.8676 0,-17.8711 -9.774,-25.8789 -22.489,-25.8789" /><path
         id="path58"
         style="fill:#8f8b8d;fill-opacity:1;fill-rule:nonzero;stroke:none"
         d="m 796.484,50.5742 v 6.8985 h 4.121 l 1.711,1.6796 v 32.7618 l -1.711,1.7382 h -4.121 v 6.8357 h 14.961 c 3.723,0 4.309,-2.1286 4.309,-4.1482 v -1.457 h 0.476 c 1.485,1.6797 6.418,6.5512 13.809,6.5512 11.203,0 14.531,-6.7738 14.531,-15.0668 V 59.1523 l 1.66,-1.6796 h 4.172 v -6.8985 h -24.875 v 6.8985 h 3.118 l 1.589,1.6796 v 24.9766 c 0,2.8047 -0.281,6.6719 -6.191,6.6719 -3.301,0 -6.043,-1.5156 -7.422,-2.5195 v -29.129 l 1.574,-1.6796 h 3.133 v -6.8985 h -24.844" /><path
         id="path60"
         style="fill:#e51636;fill-opacity:1;fill-rule:nonzero;stroke:none"
         d="M 48.1563,79.8711 C 60.957,67.5 65.918,46.6016 68.1563,38.4258 c 1.289,-4.8203 6.25,-7.6719 11.0351,-6.4453 4.8125,1.3515 7.6758,6.2812 6.3867,11.0937 -2.1875,8.2344 -8.3203,28.7891 -3.4492,45.8711 4.3477,17.3167 19.9141,32.0427 25.9691,38.0347 3.523,3.586 3.523,9.243 0,12.766 -3.567,3.586 -9.2503,3.586 -12.7738,0 -6.0547,-5.984 -20.7539,-21.562 -38.039,-25.93 -17.168,-4.871 -37.6954,1.289 -45.9258,3.477 C 6.57422,118.582 1.61328,115.723 0.324219,110.91 -0.996094,106.082 1.86719,101.16 6.71094,99.8164 14.9141,97.6289 35.7813,92.707 48.1563,79.8711" /></g></g></svg>